<svg xmlns="http://www.w3.org/2000/svg" xmlns:xlink="http://www.w3.org/1999/xlink" viewBox="0 0 192.57 464.75"><defs><style>.cls-1{fill:url(#Безымянный_градиент_27);}</style><linearGradient id="Безымянный_градиент_27" x1="1616.58" y1="81.73" x2="951.03" y2="350.22" gradientTransform="matrix(0.9, -0.74, 0.83, 1.01, -1169.81, 797.41)" gradientUnits="userSpaceOnUse"><stop offset="0" stop-color="#ffdabe"/><stop offset="0.15" stop-color="#ffd9ba"/><stop offset="0.3" stop-color="#ffd4ad"/><stop offset="0.46" stop-color="#ffcd98"/><stop offset="0.63" stop-color="#ffc47a"/><stop offset="0.64" stop-color="#ffc378"/></linearGradient></defs><title>hand</title><g id="Layer_2" data-name="Layer 2"><g id="Слой_1" data-name="Слой 1"><path class="cls-1" d="M0,442.63C83.73,331.85,133.67,209.41,134.53,73.88,110,55,96.7,52.54,98.36,43.65c1.2-6.41,11.39-9.09,32,.88-5.83-24.54-10.64-33.11-6.85-37,12.43-12.75,24.65,29.1,24.65,29.1s6-42.21,17.45-36,.51,40.9.51,40.9,17.61-23.23,25.38-15.65c5.17,5.05-8.65,24.4-26.23,50.18C182,190.91,110,363.13,34.45,464.75Z"/></g></g></svg>